<svg width="286" height="76" viewBox="0 0 286 76" fill="none" xmlns="http://www.w3.org/2000/svg">
<path d="M30.5 60.5H30V61H30.5V60.5ZM30.5 0.5V0H30V0.5H30.5ZM45.5 0.5H46V0H45.5V0.5ZM45.5 60.5V61H46V60.5H45.5ZM0.5 60.5H0V61H0.5V60.5ZM0.5 45.5V45H0V45.5H0.5ZM15.5 45.5H16V45H15.5V45.5ZM15.5 60.5V61H16V60.5H15.5ZM15.5 60.5V60H15V60.5H15.5ZM30.5 60.5H31V60H30.5V60.5ZM30.5 75.5V76H31V75.5H30.5ZM15.5 75.5H15V76H15.5V75.5ZM30.5 60.5H31V0.5H30.5H30V60.5H30.5ZM30.5 0.5V1H45.5V0.5V0H30.5V0.5ZM45.5 0.5H45V60.5H45.5H46V0.5H45.5ZM45.5 60.5V60H30.5V60.5V61H45.5V60.5ZM0.5 60.5H1V45.5H0.5H0V60.5H0.5ZM0.5 45.5V46H15.5V45.5V45H0.5V45.5ZM15.5 45.5H15V60.5H15.5H16V45.5H15.5ZM15.5 60.5V60H0.5V60.5V61H15.5V60.5ZM15.5 60.5V61H30.5V60.5V60H15.5V60.5ZM30.5 60.5H30V75.5H30.5H31V60.5H30.5ZM30.5 75.5V75H15.5V75.5V76H30.5V75.5ZM15.5 75.5H16V60.5H15.5H15V75.5H15.5ZM75.5 60.5V61H76V60.5H75.5ZM60.5 60.5H60V61H60.5V60.5ZM60.5 0.5V0H60V0.5H60.5ZM75.5 0.5H76V0H75.5V0.5ZM120.5 60.5V61H121V60.5H120.5ZM105.5 60.5H105V61H105.5V60.5ZM105.5 0.5V0H105V0.5H105.5ZM120.5 0.5H121V0H120.5V0.5ZM105.5 60.5H106V60H105.5V60.5ZM105.5 75.5V76H106V75.5H105.5ZM75.5 75.5H75V76H75.5V75.5ZM75.5 60.5V60H75V60.5H75.5ZM75.5 60.5V60H60.5V60.5V61H75.5V60.5ZM60.5 60.5H61V0.5H60.5H60V60.5H60.5ZM60.5 0.5V1H75.5V0.5V0H60.5V0.5ZM75.5 0.5H75V60.5H75.5H76V0.5H75.5ZM120.5 60.5V60H105.5V60.5V61H120.5V60.5ZM105.5 60.5H106V0.5H105.5H105V60.5H105.5ZM105.5 0.5V1H120.5V0.5V0H105.5V0.5ZM120.5 0.5H120V60.5H120.5H121V0.5H120.5ZM105.5 60.5H105V75.5H105.5H106V60.5H105.5ZM105.5 75.5V75H75.5V75.5V76H105.5V75.5ZM75.5 75.5H76V60.5H75.5H75V75.5H75.5ZM75.5 60.5V61H105.5V60.5V60H75.5V60.5ZM150.5 75.5V76H151V75.5H150.5ZM135.5 75.5H135V76H135.5V75.5ZM135.5 0.5V0H135V0.5H135.5ZM150.5 0.5H151V0H150.5V0.5ZM150.5 15.5H150V16H150.5V15.5ZM165.5 15.5H166V15H165.5V15.5ZM165.5 30.5V31H166V30.5H165.5ZM150.5 30.5V30H150V30.5H150.5ZM210.5 75.5V76H211V75.5H210.5ZM195.5 75.5H195V76H195.5V75.5ZM195.5 30.5H196V30H195.5V30.5ZM180.5 30.5H180V31H180.5V30.5ZM180.5 15.5V15H180V15.5H180.5ZM195.5 15.5V16H196V15.5H195.5ZM195.5 0.5V0H195V0.5H195.5ZM210.5 0.5H211V0H210.5V0.5ZM165.5 45.5H165V46H165.5V45.5ZM165.5 30.5V30H165V30.5H165.5ZM180.5 30.5H181V30H180.5V30.5ZM180.5 45.5V46H181V45.5H180.5ZM150.5 75.5V75H135.5V75.5V76H150.5V75.5ZM135.5 75.5H136V0.5H135.5H135V75.5H135.5ZM135.5 0.5V1H150.5V0.5V0H135.5V0.5ZM150.5 0.5H150V15.5H150.5H151V0.5H150.5ZM150.5 15.5V16H165.5V15.5V15H150.5V15.5ZM165.5 15.5H165V30.5H165.5H166V15.5H165.5ZM165.5 30.5V30H150.5V30.5V31H165.5V30.5ZM150.5 30.5H150V75.5H150.5H151V30.5H150.5ZM210.5 75.5V75H195.5V75.5V76H210.5V75.5ZM195.5 75.5H196V30.5H195.5H195V75.5H195.5ZM195.5 30.5V30H180.5V30.5V31H195.5V30.5ZM180.5 30.5H181V15.5H180.5H180V30.5H180.5ZM180.5 15.5V16H195.5V15.5V15H180.5V15.5ZM195.5 15.5H196V0.5H195.5H195V15.5H195.5ZM195.5 0.5V1H210.5V0.5V0H195.5V0.5ZM210.5 0.5H210V75.5H210.5H211V0.5H210.5ZM165.5 45.5H166V30.5H165.5H165V45.5H165.5ZM165.5 30.5V31H180.5V30.5V30H165.5V30.5ZM180.5 30.5H180V45.5H180.5H181V30.5H180.5ZM180.5 45.5V45H165.5V45.5V46H180.5V45.5ZM240.5 75.5V76H241V75.5H240.5ZM225.5 75.5H225V76H225.5V75.5ZM225.5 0.5V0H225V0.5H225.5ZM270.5 0.5H271V0H270.5V0.5ZM270.5 15.5V16H271V15.5H270.5ZM240.5 15.5V15H240V15.5H240.5ZM240.5 30.5H240V31H240.5V30.5ZM270.5 30.5H271V30H270.5V30.5ZM270.5 45.5V46H271V45.5H270.5ZM240.5 45.5V45H240V45.5H240.5ZM270.5 30.5H270V31H270.5V30.5ZM270.5 15.5V15H270V15.5H270.5ZM285.5 15.5H286V15H285.5V15.5ZM285.5 30.5V31H286V30.5H285.5ZM240.5 75.5V75H225.5V75.5V76H240.5V75.5ZM225.5 75.5H226V0.5H225.5H225V75.5H225.5ZM225.5 0.5V1H270.5V0.5V0H225.5V0.5ZM270.5 0.5H270V15.5H270.5H271V0.5H270.5ZM270.5 15.5V15H240.5V15.5V16H270.5V15.5ZM240.5 15.5H240V30.5H240.5H241V15.5H240.5ZM240.5 30.5V31H270.5V30.5V30H240.5V30.5ZM270.5 30.5H270V45.5H270.5H271V30.5H270.5ZM270.5 45.5V45H240.5V45.5V46H270.5V45.5ZM240.5 45.5H240V75.5H240.5H241V45.5H240.5ZM270.5 30.5H271V15.5H270.5H270V30.5H270.5ZM270.5 15.5V16H285.5V15.5V15H270.5V15.5ZM285.5 15.5H285V30.5H285.5H286V15.5H285.5ZM285.5 30.5V30H270.5V30.5V31H285.5V30.5Z" fill="black"/>
</svg>
